# Blender v2.93.6 OBJ File: ''
# www.blender.org
mtllib Disk.mtl
o Circle
v 0.000000 0.000000 -4.000000
v -0.780361 0.000000 -3.923141
v -1.530734 0.000000 -3.695518
v -2.222281 0.000000 -3.325878
v -2.828427 0.000000 -2.828427
v -3.325878 0.000000 -2.222281
v -3.695518 0.000000 -1.530734
v -3.923141 0.000000 -0.780361
v -4.000000 0.000000 0.000000
v -3.923141 0.000000 0.780361
v -3.695518 0.000000 1.530734
v -3.325879 0.000000 2.222281
v -2.828427 0.000000 2.828427
v -2.222281 0.000000 3.325879
v -1.530734 0.000000 3.695518
v -0.780361 0.000000 3.923141
v 0.000000 0.000000 4.000000
v 0.780361 0.000000 3.923141
v 1.530734 0.000000 3.695518
v 2.222281 0.000000 3.325878
v 2.828427 0.000000 2.828427
v 3.325878 0.000000 2.222282
v 3.695518 0.000000 1.530734
v 3.923141 0.000000 0.780362
v 4.000000 0.000000 -0.000000
v 3.923141 0.000000 -0.780362
v 3.695518 0.000000 -1.530734
v 3.325879 0.000000 -2.222280
v 2.828428 0.000000 -2.828427
v 2.222281 0.000000 -3.325878
v 1.530734 0.000000 -3.695518
v 0.780361 0.000000 -3.923141
v 0.000000 0.000000 -4.000000
v -0.780361 0.000000 -3.923141
v -1.530734 0.000000 -3.695518
v -2.222281 0.000000 -3.325878
v -2.828427 0.000000 -2.828427
v -3.325878 0.000000 -2.222281
v -3.695518 0.000000 -1.530734
v -3.923141 0.000000 -0.780361
v -4.000000 0.000000 0.000000
v -3.923141 0.000000 0.780361
v -3.695518 0.000000 1.530734
v -3.325879 0.000000 2.222281
v -2.828427 0.000000 2.828427
v -2.222281 0.000000 3.325879
v -1.530734 0.000000 3.695518
v -0.780361 0.000000 3.923141
v 0.000000 0.000000 4.000000
v 0.780361 0.000000 3.923141
v 1.530734 0.000000 3.695518
v 2.222281 0.000000 3.325878
v 2.828427 0.000000 2.828427
v 3.325878 0.000000 2.222282
v 3.695518 0.000000 1.530734
v 3.923141 0.000000 0.780362
v 4.000000 0.000000 -0.000000
v 3.923141 0.000000 -0.780362
v 3.695518 0.000000 -1.530734
v 3.325879 0.000000 -2.222280
v 2.828428 0.000000 -2.828427
v 2.222281 0.000000 -3.325878
v 1.530734 0.000000 -3.695518
v 0.780361 0.000000 -3.923141
vt 0.000000 0.000000
vt 0.000000 0.000000
vt 0.000000 0.000000
vt 0.000000 0.000000
vt 0.000000 0.000000
vt 0.000000 0.000000
vt 0.000000 0.000000
vt 0.000000 0.000000
vt 0.000000 0.000000
vt 0.000000 0.000000
vt 0.000000 0.000000
vt 0.000000 0.000000
vt 0.000000 0.000000
vt 0.000000 0.000000
vt 0.000000 0.000000
vt 0.000000 0.000000
vt 0.000000 0.000000
vt 0.000000 0.000000
vt 0.000000 0.000000
vt 0.000000 0.000000
vt 0.000000 0.000000
vt 0.000000 0.000000
vt 0.000000 0.000000
vt 0.000000 0.000000
vt 0.000000 0.000000
vt 0.000000 0.000000
vt 0.000000 0.000000
vt 0.000000 0.000000
vt 0.000000 0.000000
vt 0.000000 0.000000
vt 0.000000 0.000000
vt 0.000000 0.000000
vt 0.000000 0.000000
vt 0.000000 0.000000
vt 0.000000 0.000000
vt 0.000000 0.000000
vt 0.000000 0.000000
vt 0.000000 0.000000
vt 0.000000 0.000000
vt 0.000000 0.000000
vt 0.000000 0.000000
vt 0.000000 0.000000
vt 0.000000 0.000000
vt 0.000000 0.000000
vt 0.000000 0.000000
vt 0.000000 0.000000
vt 0.000000 0.000000
vt 0.000000 0.000000
vt 0.000000 0.000000
vt 0.000000 0.000000
vt 0.000000 0.000000
vt 0.000000 0.000000
vt 0.000000 0.000000
vt 0.000000 0.000000
vt 0.000000 0.000000
vt 0.000000 0.000000
vt 0.000000 0.000000
vt 0.000000 0.000000
vt 0.000000 0.000000
vt 0.000000 0.000000
vt 0.000000 0.000000
vt 0.000000 0.000000
vt 0.000000 0.000000
vt 0.000000 0.000000
vn 0.0000 0.0000 1.0000
vn 0.0000 -1.0000 0.0000
usemtl None
s off
f 26/1/1 59/2/1 27/3/1
f 13/4/1 46/5/1 14/6/1
f 27/3/1 60/7/1 28/8/1
f 14/6/1 47/9/1 15/10/1
f 1/11/1 34/12/1 2/13/1
f 28/8/1 61/14/1 29/15/1
f 15/10/1 48/16/1 16/17/1
f 2/13/1 35/18/1 3/19/1
f 29/15/1 62/20/1 30/21/1
f 16/17/1 49/22/1 17/23/1
f 3/19/1 36/24/1 4/25/1
f 30/21/1 63/26/1 31/27/1
f 17/23/1 50/28/1 18/29/1
f 4/25/1 37/30/1 5/31/1
f 31/27/1 64/32/1 32/33/1
f 18/29/1 51/34/1 19/35/1
f 5/31/1 38/36/1 6/37/1
f 32/33/1 33/38/1 1/11/1
f 19/35/1 52/39/1 20/40/1
f 6/37/1 39/41/1 7/42/1
f 20/40/1 53/43/1 21/44/1
f 7/42/1 40/45/1 8/46/1
f 21/44/1 54/47/1 22/48/1
f 8/46/1 41/49/1 9/50/1
f 22/48/1 55/51/1 23/52/1
f 9/50/1 42/53/1 10/54/1
f 23/52/1 56/55/1 24/56/1
f 10/54/1 43/57/1 11/58/1
f 24/56/1 57/59/1 25/60/1
f 11/58/1 44/61/1 12/62/1
f 25/60/1 58/63/1 26/1/1
f 12/62/1 45/64/1 13/4/1
f 64/32/2 34/12/2 33/38/2
f 63/26/2 62/20/2 64/32/2
f 49/22/2 48/16/2 47/9/2
f 62/20/2 61/14/2 35/18/2
f 62/20/2 35/18/2 34/12/2
f 61/14/2 37/30/2 36/24/2
f 61/14/2 60/7/2 37/30/2
f 42/53/2 55/51/2 54/47/2
f 60/7/2 39/41/2 38/36/2
f 59/2/2 39/41/2 60/7/2
f 58/63/2 40/45/2 59/2/2
f 61/14/2 36/24/2 35/18/2
f 57/59/2 40/45/2 58/63/2
f 57/59/2 41/49/2 40/45/2
f 56/55/2 41/49/2 57/59/2
f 56/55/2 42/53/2 41/49/2
f 56/55/2 55/51/2 42/53/2
f 40/45/2 39/41/2 59/2/2
f 43/57/2 42/53/2 44/61/2
f 44/61/2 42/53/2 54/47/2
f 54/47/2 45/64/2 44/61/2
f 53/43/2 45/64/2 54/47/2
f 53/43/2 46/5/2 45/64/2
f 52/39/2 46/5/2 53/43/2
f 51/34/2 46/5/2 52/39/2
f 51/34/2 47/9/2 46/5/2
f 50/28/2 49/22/2 51/34/2
f 62/20/2 34/12/2 64/32/2
f 49/22/2 47/9/2 51/34/2
f 60/7/2 38/36/2 37/30/2
f 26/1/1 58/63/1 59/2/1
f 13/4/1 45/64/1 46/5/1
f 27/3/1 59/2/1 60/7/1
f 14/6/1 46/5/1 47/9/1
f 1/11/1 33/38/1 34/12/1
f 28/8/1 60/7/1 61/14/1
f 15/10/1 47/9/1 48/16/1
f 2/13/1 34/12/1 35/18/1
f 29/15/1 61/14/1 62/20/1
f 16/17/1 48/16/1 49/22/1
f 3/19/1 35/18/1 36/24/1
f 30/21/1 62/20/1 63/26/1
f 17/23/1 49/22/1 50/28/1
f 4/25/1 36/24/1 37/30/1
f 31/27/1 63/26/1 64/32/1
f 18/29/1 50/28/1 51/34/1
f 5/31/1 37/30/1 38/36/1
f 32/33/1 64/32/1 33/38/1
f 19/35/1 51/34/1 52/39/1
f 6/37/1 38/36/1 39/41/1
f 20/40/1 52/39/1 53/43/1
f 7/42/1 39/41/1 40/45/1
f 21/44/1 53/43/1 54/47/1
f 8/46/1 40/45/1 41/49/1
f 22/48/1 54/47/1 55/51/1
f 9/50/1 41/49/1 42/53/1
f 23/52/1 55/51/1 56/55/1
f 10/54/1 42/53/1 43/57/1
f 24/56/1 56/55/1 57/59/1
f 11/58/1 43/57/1 44/61/1
f 25/60/1 57/59/1 58/63/1
f 12/62/1 44/61/1 45/64/1
