# Blender v2.93.6 OBJ File: 'scene.blend'
# www.blender.org
mtllib Underground.mtl
o Circle.002
v 0.000000 0.000000 -4.000000
v -0.780361 0.000000 -3.923141
v -1.530734 0.000000 -3.695518
v -2.222281 0.000000 -3.325878
v -2.828427 0.000000 -2.828427
v -3.325878 0.000000 -2.222281
v -3.695518 0.000000 -1.530734
v -3.923141 0.000000 -0.780361
v -4.000000 0.000000 0.000000
v -3.923141 0.000000 0.780361
v -3.695518 0.000000 1.530734
v -3.325879 0.000000 2.222281
v -2.828427 0.000000 2.828427
v -2.222281 0.000000 3.325879
v -1.530734 0.000000 3.695518
v -0.780361 0.000000 3.923141
v 0.000000 0.000000 4.000000
v 0.780361 0.000000 3.923141
v 1.530734 0.000000 3.695518
v 2.222281 0.000000 3.325878
v 2.828427 0.000000 2.828427
v 3.325878 0.000000 2.222282
v 3.695518 0.000000 1.530734
v 3.923141 0.000000 0.780362
v 4.000000 0.000000 -0.000000
v 3.923141 0.000000 -0.780362
v 3.695518 0.000000 -1.530734
v 3.325879 0.000000 -2.222280
v 2.828428 0.000000 -2.828427
v 2.222281 0.000000 -3.325878
v 1.530734 0.000000 -3.695518
v 0.780361 0.000000 -3.923141
v 0.000000 0.000000 -4.000000
v -0.780361 0.000000 -3.923141
v -1.530734 0.000000 -3.695518
v -2.222281 0.000000 -3.325878
v -2.828427 0.000000 -2.828427
v -3.325878 0.000000 -2.222281
v -3.695518 0.000000 -1.530734
v -3.923141 0.000000 -0.780361
v -4.000000 0.000000 0.000000
v -3.923141 0.000000 0.780361
v -3.695518 0.000000 1.530734
v -3.325879 0.000000 2.222281
v -2.828427 0.000000 2.828427
v -2.222281 0.000000 3.325879
v -1.530734 0.000000 3.695518
v -0.780361 0.000000 3.923141
v 0.000000 0.000000 4.000000
v 0.780361 0.000000 3.923141
v 1.530734 0.000000 3.695518
v 2.222281 0.000000 3.325878
v 2.828427 0.000000 2.828427
v 3.325878 0.000000 2.222282
v 3.695518 0.000000 1.530734
v 3.923141 0.000000 0.780362
v 4.000000 0.000000 -0.000000
v 3.923141 0.000000 -0.780362
v 3.695518 0.000000 -1.530734
v 3.325879 0.000000 -2.222280
v 2.828428 0.000000 -2.828427
v 2.222281 0.000000 -3.325878
v 1.530734 0.000000 -3.695518
v 0.780361 0.000000 -3.923141
v 0.000000 -3.524247 -4.000000
v -0.780361 -3.524247 -3.923141
v -1.530734 -3.524247 -3.695518
v -2.222281 -3.524247 -3.325878
v -2.828427 -3.524247 -2.828427
v -3.325878 -3.524247 -2.222281
v -3.695518 -3.524247 -1.530734
v -3.923141 -3.524247 -0.780361
v -4.000000 -3.524247 0.000000
v -3.923141 -3.524247 0.780361
v -3.695518 -3.524247 1.530734
v -3.325879 -3.524247 2.222281
v -2.828427 -3.524247 2.828427
v -2.222281 -3.524247 3.325879
v -1.530734 -3.524247 3.695518
v -0.780361 -3.524247 3.923141
v 0.000000 -3.524247 4.000000
v 0.780361 -3.524247 3.923141
v 1.530734 -3.524247 3.695518
v 2.222281 -3.524247 3.325878
v 2.828427 -3.524247 2.828427
v 3.325878 -3.524247 2.222282
v 3.695518 -3.524247 1.530734
v 3.923141 -3.524247 0.780362
v 4.000000 -3.524247 -0.000000
v 3.923141 -3.524247 -0.780362
v 3.695518 -3.524247 -1.530734
v 3.325879 -3.524247 -2.222280
v 2.828428 -3.524247 -2.828427
v 2.222281 -3.524247 -3.325878
v 1.530734 -3.524247 -3.695518
v 0.780361 -3.524247 -3.923141
vt 0.000000 0.000000
vt 0.000000 0.000000
vt 0.000000 0.000000
vt 0.000000 0.000000
vt 0.000000 0.000000
vt 0.000000 0.000000
vt 0.000000 0.000000
vt 0.000000 0.000000
vt 0.000000 0.000000
vt 0.000000 0.000000
vt 0.000000 0.000000
vt 0.000000 0.000000
vt 0.000000 0.000000
vt 0.000000 0.000000
vt 0.000000 0.000000
vt 0.000000 0.000000
vt 0.000000 0.000000
vt 0.000000 0.000000
vt 0.000000 0.000000
vt 0.000000 0.000000
vt 0.000000 0.000000
vt 0.000000 0.000000
vt 0.000000 0.000000
vt 0.000000 0.000000
vt 0.000000 0.000000
vt 0.000000 0.000000
vt 0.000000 0.000000
vt 0.000000 0.000000
vt 0.000000 0.000000
vt 0.000000 0.000000
vt 0.000000 0.000000
vt 0.000000 0.000000
vt 0.000000 0.000000
vt 0.000000 0.000000
vt 0.000000 0.000000
vt 0.000000 0.000000
vt 0.000000 0.000000
vt 0.000000 0.000000
vt 0.000000 0.000000
vt 0.000000 0.000000
vt 0.000000 0.000000
vt 0.000000 0.000000
vt 0.000000 0.000000
vt 0.000000 0.000000
vt 0.000000 0.000000
vt 0.000000 0.000000
vt 0.000000 0.000000
vt 0.000000 0.000000
vt 0.000000 0.000000
vt 0.000000 0.000000
vt 0.000000 0.000000
vt 0.000000 0.000000
vt 0.000000 0.000000
vt 0.000000 0.000000
vt 0.000000 0.000000
vt 0.000000 0.000000
vt 0.000000 0.000000
vt 0.000000 0.000000
vt 0.000000 0.000000
vt 0.000000 0.000000
vt 0.000000 0.000000
vt 0.000000 0.000000
vt 0.000000 0.000000
vt 0.000000 0.000000
vt 0.000000 0.000000
vt 0.000000 0.000000
vt 0.000000 0.000000
vt 0.000000 0.000000
vt 0.000000 0.000000
vt 0.000000 0.000000
vt 0.000000 0.000000
vt 0.000000 0.000000
vt 0.000000 0.000000
vt 0.000000 0.000000
vt 0.000000 0.000000
vt 0.000000 0.000000
vt 0.000000 0.000000
vt 0.000000 0.000000
vt 0.000000 0.000000
vt 0.000000 0.000000
vt 0.000000 0.000000
vt 0.000000 0.000000
vt 0.000000 0.000000
vt 0.000000 0.000000
vt 0.000000 0.000000
vt 0.000000 0.000000
vt 0.000000 0.000000
vt 0.000000 0.000000
vt 0.000000 0.000000
vt 0.000000 0.000000
vt 0.000000 0.000000
vt 0.000000 0.000000
vt 0.000000 0.000000
vt 0.000000 0.000000
vt 0.000000 0.000000
vt 0.000000 0.000000
vn 0.0000 0.0000 1.0000
vn 0.0980 0.0000 0.9952
vn 0.4714 0.0000 -0.8819
vn -0.4714 0.0000 -0.8819
vn -0.0980 0.0000 0.9952
vn 0.6344 0.0000 -0.7730
vn -0.2903 0.0000 -0.9569
vn -0.2903 0.0000 0.9569
vn 0.7730 0.0000 -0.6344
vn -0.0980 0.0000 -0.9952
vn -0.4714 0.0000 0.8819
vn 0.8819 0.0000 -0.4714
vn -0.6344 0.0000 0.7730
vn 0.9569 0.0000 -0.2903
vn -0.7730 0.0000 0.6344
vn 0.9952 0.0000 -0.0980
vn -0.8819 0.0000 0.4714
vn 0.9952 0.0000 0.0980
vn -0.9569 0.0000 0.2903
vn 0.9569 0.0000 0.2903
vn -0.9952 0.0000 0.0980
vn 0.8819 0.0000 0.4714
vn -0.9952 0.0000 -0.0980
vn 0.7730 0.0000 0.6344
vn -0.9569 0.0000 -0.2903
vn 0.6344 0.0000 0.7730
vn -0.8819 0.0000 -0.4714
vn 0.4714 0.0000 0.8819
vn 0.0980 0.0000 -0.9952
vn -0.7730 0.0000 -0.6344
vn 0.2903 0.0000 0.9569
vn -0.6344 0.0000 -0.7730
vn 0.2903 0.0000 -0.9569
vn 0.0000 -1.0000 0.0000
usemtl Material.006
s off
f 26/1/1 59/2/1 27/3/1
f 13/4/1 46/5/1 14/6/1
f 27/3/1 60/7/1 28/8/1
f 14/6/1 47/9/1 15/10/1
f 1/11/1 34/12/1 2/13/1
f 28/8/1 61/14/1 29/15/1
f 15/10/1 48/16/1 16/17/1
f 2/13/1 35/18/1 3/19/1
f 29/15/1 62/20/1 30/21/1
f 16/17/1 49/22/1 17/23/1
f 3/19/1 36/24/1 4/25/1
f 30/21/1 63/26/1 31/27/1
f 17/23/1 50/28/1 18/29/1
f 4/25/1 37/30/1 5/31/1
f 31/27/1 64/32/1 32/33/1
f 18/29/1 51/34/1 19/35/1
f 5/31/1 38/36/1 6/37/1
f 32/33/1 33/38/1 1/11/1
f 19/35/1 52/39/1 20/40/1
f 6/37/1 39/41/1 7/42/1
f 20/40/1 53/43/1 21/44/1
f 7/42/1 40/45/1 8/46/1
f 21/44/1 54/47/1 22/48/1
f 8/46/1 41/49/1 9/50/1
f 22/48/1 55/51/1 23/52/1
f 9/50/1 42/53/1 10/54/1
f 23/52/1 56/55/1 24/56/1
f 10/54/1 43/57/1 11/58/1
f 24/56/1 57/59/1 25/60/1
f 11/58/1 44/61/1 12/62/1
f 25/60/1 58/63/1 26/1/1
f 12/62/1 45/64/1 13/4/1
f 49/22/2 82/65/2 50/28/2
f 62/20/3 95/66/3 63/26/3
f 35/18/4 68/67/4 36/24/4
f 48/16/5 81/68/5 49/22/5
f 61/14/6 94/69/6 62/20/6
f 34/12/7 67/70/7 35/18/7
f 47/9/8 80/71/8 48/16/8
f 60/7/9 93/72/9 61/14/9
f 33/38/10 66/73/10 34/12/10
f 46/5/11 79/74/11 47/9/11
f 59/2/12 92/75/12 60/7/12
f 45/64/13 78/76/13 46/5/13
f 58/63/14 91/77/14 59/2/14
f 44/61/15 77/78/15 45/64/15
f 57/59/16 90/79/16 58/63/16
f 43/57/17 76/80/17 44/61/17
f 56/55/18 89/81/18 57/59/18
f 42/53/19 75/82/19 43/57/19
f 55/51/20 88/83/20 56/55/20
f 41/49/21 74/84/21 42/53/21
f 54/47/22 87/85/22 55/51/22
f 40/45/23 73/86/23 41/49/23
f 53/43/24 86/87/24 54/47/24
f 39/41/25 72/88/25 40/45/25
f 52/39/26 85/89/26 53/43/26
f 38/36/27 71/90/27 39/41/27
f 51/34/28 84/91/28 52/39/28
f 64/32/29 65/92/29 33/38/29
f 37/30/30 70/93/30 38/36/30
f 50/28/31 83/94/31 51/34/31
f 36/24/32 69/95/32 37/30/32
f 63/26/33 96/96/33 64/32/33
f 26/1/1 58/63/1 59/2/1
f 13/4/1 45/64/1 46/5/1
f 27/3/1 59/2/1 60/7/1
f 14/6/1 46/5/1 47/9/1
f 1/11/1 33/38/1 34/12/1
f 28/8/1 60/7/1 61/14/1
f 15/10/1 47/9/1 48/16/1
f 2/13/1 34/12/1 35/18/1
f 29/15/1 61/14/1 62/20/1
f 16/17/1 48/16/1 49/22/1
f 3/19/1 35/18/1 36/24/1
f 30/21/1 62/20/1 63/26/1
f 17/23/1 49/22/1 50/28/1
f 4/25/1 36/24/1 37/30/1
f 31/27/1 63/26/1 64/32/1
f 18/29/1 50/28/1 51/34/1
f 5/31/1 37/30/1 38/36/1
f 32/33/1 64/32/1 33/38/1
f 19/35/1 51/34/1 52/39/1
f 6/37/1 38/36/1 39/41/1
f 20/40/1 52/39/1 53/43/1
f 7/42/1 39/41/1 40/45/1
f 21/44/1 53/43/1 54/47/1
f 8/46/1 40/45/1 41/49/1
f 22/48/1 54/47/1 55/51/1
f 9/50/1 41/49/1 42/53/1
f 23/52/1 55/51/1 56/55/1
f 10/54/1 42/53/1 43/57/1
f 24/56/1 56/55/1 57/59/1
f 11/58/1 43/57/1 44/61/1
f 25/60/1 57/59/1 58/63/1
f 12/62/1 44/61/1 45/64/1
f 49/22/2 81/68/2 82/65/2
f 62/20/3 94/69/3 95/66/3
f 35/18/4 67/70/4 68/67/4
f 48/16/5 80/71/5 81/68/5
f 61/14/6 93/72/6 94/69/6
f 34/12/7 66/73/7 67/70/7
f 47/9/8 79/74/8 80/71/8
f 60/7/9 92/75/9 93/72/9
f 33/38/10 65/92/10 66/73/10
f 46/5/11 78/76/11 79/74/11
f 59/2/12 91/77/12 92/75/12
f 45/64/13 77/78/13 78/76/13
f 58/63/14 90/79/14 91/77/14
f 44/61/15 76/80/15 77/78/15
f 57/59/16 89/81/16 90/79/16
f 43/57/17 75/82/17 76/80/17
f 56/55/18 88/83/18 89/81/18
f 42/53/19 74/84/19 75/82/19
f 55/51/20 87/85/20 88/83/20
f 41/49/21 73/86/21 74/84/21
f 54/47/22 86/87/22 87/85/22
f 40/45/23 72/88/23 73/86/23
f 53/43/24 85/89/24 86/87/24
f 39/41/25 71/90/25 72/88/25
f 52/39/26 84/91/26 85/89/26
f 38/36/27 70/93/27 71/90/27
f 51/34/28 83/94/28 84/91/28
f 64/32/29 96/96/29 65/92/29
f 37/30/30 69/95/30 70/93/30
f 50/28/31 82/65/31 83/94/31
f 36/24/32 68/67/32 69/95/32
f 63/26/33 95/66/33 96/96/33
usemtl Material.007
f 91/77/34 83/94/34 75/82/34
f 67/70/34 66/73/34 95/66/34
f 66/73/34 65/92/34 95/66/34
f 65/92/34 96/96/34 95/66/34
f 95/66/34 94/69/34 93/72/34
f 93/72/34 92/75/34 95/66/34
f 92/75/34 91/77/34 95/66/34
f 91/77/34 90/79/34 89/81/34
f 89/81/34 88/83/34 87/85/34
f 87/85/34 86/87/34 85/89/34
f 85/89/34 84/91/34 83/94/34
f 83/94/34 82/65/34 81/68/34
f 81/68/34 80/71/34 79/74/34
f 79/74/34 78/76/34 77/78/34
f 77/78/34 76/80/34 75/82/34
f 75/82/34 74/84/34 73/86/34
f 73/86/34 72/88/34 71/90/34
f 71/90/34 70/93/34 69/95/34
f 69/95/34 68/67/34 67/70/34
f 91/77/34 89/81/34 83/94/34
f 89/81/34 87/85/34 83/94/34
f 87/85/34 85/89/34 83/94/34
f 83/94/34 81/68/34 79/74/34
f 79/74/34 77/78/34 83/94/34
f 77/78/34 75/82/34 83/94/34
f 75/82/34 73/86/34 67/70/34
f 73/86/34 71/90/34 67/70/34
f 71/90/34 69/95/34 67/70/34
f 67/70/34 95/66/34 91/77/34
f 67/70/34 91/77/34 75/82/34
